<?xml version="1.0" encoding="UTF-8" standalone="no"?><svg xmlns="http://www.w3.org/2000/svg" xmlns:xlink="http://www.w3.org/1999/xlink" clip-rule="evenodd" stroke-miterlimit="4.00" viewBox="0 0 1024 768"><desc>SVG generated by Keynote</desc><defs></defs><g transform="matrix(1.00, 0.00, -0.00, -1.00, 0.0, 768.0)"><path d="M 0.0 768.0 L 1024.0 768.0 L 1024.0 0.0 L 0.0 0.0 Z M 0.0 768.0 " fill="#000000"></path><text xml:space="preserve" font-family="Helvetica-Light" font-size="36.0" fill="#FEFFFF" transform="matrix(1.00, 0.00, -0.00, -1.00, 44.0, 685.0)">3</text><text xml:space="preserve" font-family="Helvetica-Light" font-size="36.0" fill="#FEFFFF" transform="matrix(1.00, 0.00, -0.00, -1.00, 64.0, 685.0)">.</text><text xml:space="preserve" font-family="Helvetica-Light" font-size="36.0" fill="#FEFFFF" transform="matrix(1.00, 0.00, -0.00, -1.00, 74.0, 685.0)"> </text><text xml:space="preserve" font-family="Helvetica-Light" font-size="36.0" fill="#FEFFFF" transform="matrix(1.00, 0.00, -0.00, -1.00, 84.0, 685.0)">C</text><text xml:space="preserve" font-family="Helvetica-Light" font-size="36.0" fill="#FEFFFF" transform="matrix(1.00, 0.00, -0.00, -1.00, 110.0, 685.0)">r</text><text xml:space="preserve" font-family="Helvetica-Light" font-size="36.0" fill="#FEFFFF" transform="matrix(1.00, 0.00, -0.00, -1.00, 121.4, 685.0)">e</text><text xml:space="preserve" font-family="Helvetica-Light" font-size="36.0" fill="#FEFFFF" transform="matrix(1.00, 0.00, -0.00, -1.00, 141.4, 685.0)">a</text><text xml:space="preserve" font-family="Helvetica-Light" font-size="36.0" fill="#FEFFFF" transform="matrix(1.00, 0.00, -0.00, -1.00, 161.4, 685.0)">t</text><text xml:space="preserve" font-family="Helvetica-Light" font-size="36.0" fill="#FEFFFF" transform="matrix(1.00, 0.00, -0.00, -1.00, 171.4, 685.0)">e</text><text xml:space="preserve" font-family="Helvetica-Light" font-size="36.0" fill="#FEFFFF" transform="matrix(1.00, 0.00, -0.00, -1.00, 191.4, 685.0)"> </text><text xml:space="preserve" font-family="Helvetica-Light" font-size="36.0" fill="#FEFFFF" transform="matrix(1.00, 0.00, -0.00, -1.00, 201.4, 685.0)">a</text><text xml:space="preserve" font-family="Helvetica-Light" font-size="36.0" fill="#FEFFFF" transform="matrix(1.00, 0.00, -0.00, -1.00, 221.4, 685.0)"> </text><text xml:space="preserve" font-family="Helvetica-Light" font-size="36.0" fill="#FEFFFF" transform="matrix(1.00, 0.00, -0.00, -1.00, 231.5, 685.0)">c</text><text xml:space="preserve" font-family="Helvetica-Light" font-size="36.0" fill="#FEFFFF" transform="matrix(1.00, 0.00, -0.00, -1.00, 251.5, 685.0)">u</text><text xml:space="preserve" font-family="Helvetica-Light" font-size="36.0" fill="#FEFFFF" transform="matrix(1.00, 0.00, -0.00, -1.00, 271.5, 685.0)">r</text><text xml:space="preserve" font-family="Helvetica-Light" font-size="36.0" fill="#FEFFFF" transform="matrix(1.00, 0.00, -0.00, -1.00, 283.5, 685.0)">i</text><text xml:space="preserve" font-family="Helvetica-Light" font-size="36.0" fill="#FEFFFF" transform="matrix(1.00, 0.00, -0.00, -1.00, 291.5, 685.0)">o</text><text xml:space="preserve" font-family="Helvetica-Light" font-size="36.0" fill="#FEFFFF" transform="matrix(1.00, 0.00, -0.00, -1.00, 311.5, 685.0)">s</text><text xml:space="preserve" font-family="Helvetica-Light" font-size="36.0" fill="#FEFFFF" transform="matrix(1.00, 0.00, -0.00, -1.00, 329.5, 685.0)">i</text><text xml:space="preserve" font-family="Helvetica-Light" font-size="36.0" fill="#FEFFFF" transform="matrix(1.00, 0.00, -0.00, -1.00, 337.5, 685.0)">t</text><text xml:space="preserve" font-family="Helvetica-Light" font-size="36.0" fill="#FEFFFF" transform="matrix(1.00, 0.00, -0.00, -1.00, 347.5, 685.0)">y</text><text xml:space="preserve" font-family="Helvetica-Light" font-size="36.0" fill="#FEFFFF" transform="matrix(1.00, 0.00, -0.00, -1.00, 365.5, 685.0)"> </text><text xml:space="preserve" font-family="Helvetica-Light" font-size="36.0" fill="#FEFFFF" transform="matrix(1.00, 0.00, -0.00, -1.00, 375.5, 685.0)">g</text><text xml:space="preserve" font-family="Helvetica-Light" font-size="36.0" fill="#FEFFFF" transform="matrix(1.00, 0.00, -0.00, -1.00, 397.5, 685.0)">a</text><text xml:space="preserve" font-family="Helvetica-Light" font-size="36.0" fill="#FEFFFF" transform="matrix(1.00, 0.00, -0.00, -1.00, 417.5, 685.0)">p</text><text xml:space="preserve" font-family="Helvetica-Light" font-size="36.0" fill="#FEFFFF" transform="matrix(1.00, 0.00, -0.00, -1.00, 439.5, 685.0)"> </text><g><clipPath id="clip-34"><path d="M 98.1 130.0 L 351.8 130.0 L 351.8 581.0 L 98.1 581.0 Z M 98.1 130.0 "></path></clipPath><g clip-path="url(#clip-34)"><image xlink:href="../../E9792116-AB90-49AB-B03C-28EEF72629F6/assets/83FEBBB7702A72BA00177A6AAD90DD7A.png" width="253.00" height="451.00" transform="matrix(1.00, 0.00, -0.00, -1.00, 98.0, 581.0)"></image></g></g><g><clipPath id="clip-35"><path d="M 97.0 406.2 L 352.8 406.2 L 352.8 524.1 L 97.0 524.1 Z M 97.0 406.2 "></path></clipPath><g clip-path="url(#clip-35)"><path d="M 0.0 0.0 L 249.8 0.0 L 249.8 111.9 L 0.0 111.9 Z M 0.0 0.0 " fill="none" stroke="#FF2E23" stroke-width="4.00" transform="matrix(1.00, 0.00, 0.00, -1.00, 100.0, 521.1)"></path></g></g><g><clipPath id="clip-36"><path d="M 401.2 317.5 L 943.0 317.5 L 943.0 632.7 L 401.2 632.7 Z M 401.2 317.5 "></path></clipPath><g clip-path="url(#clip-36)"><image xlink:href="../../E9792116-AB90-49AB-B03C-28EEF72629F6/assets/747E79D01904DE41F3F0DE1D8372ED2C.png" width="542.00" height="315.00" transform="matrix(1.00, 0.00, -0.00, -1.00, 401.0, 633.0)"></image></g></g><g><clipPath id="clip-37"><path d="M 402.0 317.9 L 942.2 317.9 L 942.2 635.1 L 402.0 635.1 Z M 402.0 317.9 "></path></clipPath><g clip-path="url(#clip-37)"><path d="M 0.0 0.0 L 534.2 0.0 L 534.2 311.2 L 0.0 311.2 Z M 0.0 0.0 " fill="none" stroke="#FF2E23" stroke-width="4.00" transform="matrix(1.00, 0.00, 0.00, -1.00, 405.0, 632.1)"></path></g></g><image xlink:href="../../E9792116-AB90-49AB-B03C-28EEF72629F6/assets/E6BF2AA1F5E447F2B67E5E93C79FECBE.png" width="174.00" height="51.00" transform="matrix(1.00, 0.00, -0.00, -1.00, 409.0, 625.0)"></image><g><clipPath id="clip-38"><path d="M 223.1 85.8 L 941.1 85.8 L 941.1 269.8 L 223.1 269.8 Z M 223.1 85.8 "></path></clipPath><g clip-path="url(#clip-38)"><image xlink:href="../../E9792116-AB90-49AB-B03C-28EEF72629F6/assets/7B34A30F3A078951F0514E21D40AF93D.png" width="718.00" height="184.00" transform="matrix(1.00, 0.00, -0.00, -1.00, 223.0, 270.0)"></image></g></g><g><clipPath id="clip-39"><path d="M 222.0 98.1 L 942.0 98.1 L 942.0 266.4 L 222.0 266.4 Z M 222.0 98.1 "></path></clipPath><g clip-path="url(#clip-39)"><path d="M 0.0 0.0 L 714.0 0.0 L 714.0 162.3 L 0.0 162.3 Z M 0.0 0.0 " fill="none" stroke="#FF2E23" stroke-width="4.00" transform="matrix(1.00, 0.00, 0.00, -1.00, 225.0, 263.4)"></path></g></g><image xlink:href="../../E9792116-AB90-49AB-B03C-28EEF72629F6/assets/F82180C73CB15836772CEB557802832B.png" width="70.00" height="38.00" transform="matrix(1.00, 0.00, -0.00, -1.00, 477.0, 155.0)"></image></g></svg>