<?xml version="1.0" encoding="UTF-8" standalone="no"?><svg xmlns="http://www.w3.org/2000/svg" xmlns:xlink="http://www.w3.org/1999/xlink" clip-rule="evenodd" stroke-miterlimit="4.00" viewBox="0 0 1024 768"><desc>SVG generated by Keynote</desc><defs></defs><g transform="matrix(1.00, 0.00, -0.00, -1.00, 0.0, 768.0)"><path d="M 0.0 768.0 L 1024.0 768.0 L 1024.0 0.0 L 0.0 0.0 Z M 0.0 768.0 " fill="#000000"></path><text xml:space="preserve" font-family="Helvetica-Light" font-size="36.0" fill="#FEFFFF" transform="matrix(1.00, 0.00, -0.00, -1.00, 44.0, 685.0)">3</text><text xml:space="preserve" font-family="Helvetica-Light" font-size="36.0" fill="#FEFFFF" transform="matrix(1.00, 0.00, -0.00, -1.00, 64.0, 685.0)">.</text><text xml:space="preserve" font-family="Helvetica-Light" font-size="36.0" fill="#FEFFFF" transform="matrix(1.00, 0.00, -0.00, -1.00, 74.0, 685.0)"> </text><text xml:space="preserve" font-family="Helvetica-Light" font-size="36.0" fill="#FEFFFF" transform="matrix(1.00, 0.00, -0.00, -1.00, 84.0, 685.0)">C</text><text xml:space="preserve" font-family="Helvetica-Light" font-size="36.0" fill="#FEFFFF" transform="matrix(1.00, 0.00, -0.00, -1.00, 110.0, 685.0)">r</text><text xml:space="preserve" font-family="Helvetica-Light" font-size="36.0" fill="#FEFFFF" transform="matrix(1.00, 0.00, -0.00, -1.00, 121.4, 685.0)">e</text><text xml:space="preserve" font-family="Helvetica-Light" font-size="36.0" fill="#FEFFFF" transform="matrix(1.00, 0.00, -0.00, -1.00, 141.4, 685.0)">a</text><text xml:space="preserve" font-family="Helvetica-Light" font-size="36.0" fill="#FEFFFF" transform="matrix(1.00, 0.00, -0.00, -1.00, 161.4, 685.0)">t</text><text xml:space="preserve" font-family="Helvetica-Light" font-size="36.0" fill="#FEFFFF" transform="matrix(1.00, 0.00, -0.00, -1.00, 171.4, 685.0)">e</text><text xml:space="preserve" font-family="Helvetica-Light" font-size="36.0" fill="#FEFFFF" transform="matrix(1.00, 0.00, -0.00, -1.00, 191.4, 685.0)"> </text><text xml:space="preserve" font-family="Helvetica-Light" font-size="36.0" fill="#FEFFFF" transform="matrix(1.00, 0.00, -0.00, -1.00, 201.4, 685.0)">a</text><text xml:space="preserve" font-family="Helvetica-Light" font-size="36.0" fill="#FEFFFF" transform="matrix(1.00, 0.00, -0.00, -1.00, 221.4, 685.0)"> </text><text xml:space="preserve" font-family="Helvetica-Light" font-size="36.0" fill="#FEFFFF" transform="matrix(1.00, 0.00, -0.00, -1.00, 231.5, 685.0)">c</text><text xml:space="preserve" font-family="Helvetica-Light" font-size="36.0" fill="#FEFFFF" transform="matrix(1.00, 0.00, -0.00, -1.00, 251.5, 685.0)">u</text><text xml:space="preserve" font-family="Helvetica-Light" font-size="36.0" fill="#FEFFFF" transform="matrix(1.00, 0.00, -0.00, -1.00, 271.5, 685.0)">r</text><text xml:space="preserve" font-family="Helvetica-Light" font-size="36.0" fill="#FEFFFF" transform="matrix(1.00, 0.00, -0.00, -1.00, 283.5, 685.0)">i</text><text xml:space="preserve" font-family="Helvetica-Light" font-size="36.0" fill="#FEFFFF" transform="matrix(1.00, 0.00, -0.00, -1.00, 291.5, 685.0)">o</text><text xml:space="preserve" font-family="Helvetica-Light" font-size="36.0" fill="#FEFFFF" transform="matrix(1.00, 0.00, -0.00, -1.00, 311.5, 685.0)">s</text><text xml:space="preserve" font-family="Helvetica-Light" font-size="36.0" fill="#FEFFFF" transform="matrix(1.00, 0.00, -0.00, -1.00, 329.5, 685.0)">i</text><text xml:space="preserve" font-family="Helvetica-Light" font-size="36.0" fill="#FEFFFF" transform="matrix(1.00, 0.00, -0.00, -1.00, 337.5, 685.0)">t</text><text xml:space="preserve" font-family="Helvetica-Light" font-size="36.0" fill="#FEFFFF" transform="matrix(1.00, 0.00, -0.00, -1.00, 347.5, 685.0)">y</text><text xml:space="preserve" font-family="Helvetica-Light" font-size="36.0" fill="#FEFFFF" transform="matrix(1.00, 0.00, -0.00, -1.00, 365.5, 685.0)"> </text><text xml:space="preserve" font-family="Helvetica-Light" font-size="36.0" fill="#FEFFFF" transform="matrix(1.00, 0.00, -0.00, -1.00, 375.5, 685.0)">g</text><text xml:space="preserve" font-family="Helvetica-Light" font-size="36.0" fill="#FEFFFF" transform="matrix(1.00, 0.00, -0.00, -1.00, 397.5, 685.0)">a</text><text xml:space="preserve" font-family="Helvetica-Light" font-size="36.0" fill="#FEFFFF" transform="matrix(1.00, 0.00, -0.00, -1.00, 417.5, 685.0)">p</text><text xml:space="preserve" font-family="Helvetica-Light" font-size="36.0" fill="#FEFFFF" transform="matrix(1.00, 0.00, -0.00, -1.00, 439.5, 685.0)"> </text></g></svg>