<?xml version="1.0" encoding="UTF-8" standalone="no"?><svg xmlns="http://www.w3.org/2000/svg" xmlns:xlink="http://www.w3.org/1999/xlink" clip-rule="evenodd" stroke-miterlimit="4.00" viewBox="0 0 262 452"><desc>SVG generated by Keynote</desc><defs></defs><g transform="matrix(1.00, 0.00, -0.00, -1.00, 0.0, 452.0)"><g><clipPath id="clip-220"><path d="M 1.0 451.0 L 261.0 451.0 L 261.0 0.0 L 1.0 0.0 Z M 1.4 451.0 "></path></clipPath><g clip-path="url(#clip-220)"><g><clipPath id="clip-221"><path d="M 1.4 0.0 L 261.2 0.0 L 261.2 451.0 L 1.4 451.0 Z M 1.4 0.0 "></path></clipPath><g clip-path="url(#clip-221)"><image xlink:href="4D67DF7FD196BE6C2EEC2EBDA29A61DD.png" width="253.00" height="451.00" transform="matrix(1.00, 0.00, -0.00, -1.00, 1.0, 451.0)"></image></g></g></g></g><g><clipPath id="clip-222"><path d="M 0.0 160.3 L 255.7 160.3 L 255.7 416.3 L 0.0 416.3 Z M 0.0 160.3 "></path></clipPath><g clip-path="url(#clip-222)"><path d="M 0.0 0.0 L 249.7 0.0 L 249.7 250.0 L 0.0 250.0 Z M 0.0 0.0 " fill="none" stroke="#FF2E23" stroke-width="4.00" transform="matrix(1.00, 0.00, 0.00, -1.00, 3.0, 413.3)"></path></g></g></g></svg>