<?xml version="1.0" encoding="UTF-8" standalone="no"?><svg xmlns="http://www.w3.org/2000/svg" xmlns:xlink="http://www.w3.org/1999/xlink" clip-rule="evenodd" stroke-miterlimit="4.00" viewBox="0 0 255 452"><desc>SVG generated by Keynote</desc><defs></defs><g transform="matrix(1.00, 0.00, -0.00, -1.00, 0.0, 452.0)"><g><clipPath id="clip-138"><path d="M 1.0 452.0 L 255.0 452.0 L 255.0 1.0 L 1.0 1.0 Z M 0.9 451.7 "></path></clipPath><g clip-path="url(#clip-138)"><g><clipPath id="clip-139"><path d="M 0.9 0.9 L 254.5 0.9 L 254.5 451.7 L 0.9 451.7 Z M 0.9 0.9 "></path></clipPath><g clip-path="url(#clip-139)"><image xlink:href="D3088DF20BF222BD3130EA8D9D1F08E9.png" width="253.00" height="451.00" transform="matrix(1.00, 0.00, -0.00, -1.00, 1.0, 452.0)"></image></g></g></g></g><g><clipPath id="clip-140"><path d="M 4.5 165.5 L 250.9 165.5 L 250.9 241.9 L 4.5 241.9 Z M 4.5 165.5 "></path></clipPath><g clip-path="url(#clip-140)"><path d="M 0.0 0.0 L 241.4 0.0 L 241.4 71.4 L 0.0 71.4 Z M 0.0 0.0 " fill="none" stroke="#FF2E23" stroke-width="3.00" transform="matrix(1.00, 0.00, 0.00, -1.00, 7.0, 239.4)"></path></g></g></g></svg>