<?xml version="1.0" encoding="UTF-8" standalone="no"?><svg xmlns="http://www.w3.org/2000/svg" xmlns:xlink="http://www.w3.org/1999/xlink" clip-rule="evenodd" stroke-miterlimit="4.00" viewBox="0 0 1024 768"><desc>SVG generated by Keynote</desc><defs></defs><g transform="matrix(1.00, 0.00, -0.00, -1.00, 0.0, 768.0)"><path d="M 0.0 768.0 L 1024.0 768.0 L 1024.0 0.0 L 0.0 0.0 Z M 0.0 768.0 " fill="#000000"></path><text xml:space="preserve" font-family="Helvetica-Light" font-size="36.0" fill="#FEFFFF" transform="matrix(1.00, 0.00, -0.00, -1.00, 242.0, 650.0)">T</text><text xml:space="preserve" font-family="Helvetica-Light" font-size="36.0" fill="#FEFFFF" transform="matrix(1.00, 0.00, -0.00, -1.00, 258.7, 650.0)">r</text><text xml:space="preserve" font-family="Helvetica-Light" font-size="36.0" fill="#FEFFFF" transform="matrix(1.00, 0.00, -0.00, -1.00, 270.7, 650.0)">a</text><text xml:space="preserve" font-family="Helvetica-Light" font-size="36.0" fill="#FEFFFF" transform="matrix(1.00, 0.00, -0.00, -1.00, 290.7, 650.0)">d</text><text xml:space="preserve" font-family="Helvetica-Light" font-size="36.0" fill="#FEFFFF" transform="matrix(1.00, 0.00, -0.00, -1.00, 312.7, 650.0)">i</text><text xml:space="preserve" font-family="Helvetica-Light" font-size="36.0" fill="#FEFFFF" transform="matrix(1.00, 0.00, -0.00, -1.00, 320.7, 650.0)">t</text><text xml:space="preserve" font-family="Helvetica-Light" font-size="36.0" fill="#FEFFFF" transform="matrix(1.00, 0.00, -0.00, -1.00, 330.7, 650.0)">i</text><text xml:space="preserve" font-family="Helvetica-Light" font-size="36.0" fill="#FEFFFF" transform="matrix(1.00, 0.00, -0.00, -1.00, 338.7, 650.0)">o</text><text xml:space="preserve" font-family="Helvetica-Light" font-size="36.0" fill="#FEFFFF" transform="matrix(1.00, 0.00, -0.00, -1.00, 358.7, 650.0)">n</text><text xml:space="preserve" font-family="Helvetica-Light" font-size="36.0" fill="#FEFFFF" transform="matrix(1.00, 0.00, -0.00, -1.00, 378.7, 650.0)">a</text><text xml:space="preserve" font-family="Helvetica-Light" font-size="36.0" fill="#FEFFFF" transform="matrix(1.00, 0.00, -0.00, -1.00, 398.7, 650.0)">l</text><text xml:space="preserve" font-family="Helvetica-Light" font-size="36.0" fill="#FEFFFF" transform="matrix(1.00, 0.00, -0.00, -1.00, 406.7, 650.0)"> </text><text xml:space="preserve" font-family="Helvetica-Light" font-size="36.0" fill="#FEFFFF" transform="matrix(1.00, 0.00, -0.00, -1.00, 416.7, 650.0)">W</text><text xml:space="preserve" font-family="Helvetica-Light" font-size="36.0" fill="#FEFFFF" transform="matrix(1.00, 0.00, -0.00, -1.00, 448.1, 650.0)">o</text><text xml:space="preserve" font-family="Helvetica-Light" font-size="36.0" fill="#FEFFFF" transform="matrix(1.00, 0.00, -0.00, -1.00, 468.1, 650.0)">r</text><text xml:space="preserve" font-family="Helvetica-Light" font-size="36.0" fill="#FEFFFF" transform="matrix(1.00, 0.00, -0.00, -1.00, 479.5, 650.0)">d</text><text xml:space="preserve" font-family="Helvetica-Light" font-size="36.0" fill="#FEFFFF" transform="matrix(1.00, 0.00, -0.00, -1.00, 501.5, 650.0)">p</text><text xml:space="preserve" font-family="Helvetica-Light" font-size="36.0" fill="#FEFFFF" transform="matrix(1.00, 0.00, -0.00, -1.00, 523.4, 650.0)">l</text><text xml:space="preserve" font-family="Helvetica-Light" font-size="36.0" fill="#FEFFFF" transform="matrix(1.00, 0.00, -0.00, -1.00, 531.4, 650.0)">a</text><text xml:space="preserve" font-family="Helvetica-Light" font-size="36.0" fill="#FEFFFF" transform="matrix(1.00, 0.00, -0.00, -1.00, 551.5, 650.0)">y</text><text xml:space="preserve" font-family="Helvetica-Light" font-size="36.0" fill="#FEFFFF" transform="matrix(1.00, 0.00, -0.00, -1.00, 569.5, 650.0)"> </text><text xml:space="preserve" font-family="Helvetica-Light" font-size="36.0" fill="#FEFFFF" transform="matrix(1.00, 0.00, -0.00, -1.00, 579.5, 650.0)"> </text><text xml:space="preserve" font-family="Helvetica-Light" font-size="36.0" fill="#FEFFFF" transform="matrix(1.00, 0.00, -0.00, -1.00, 589.5, 650.0)"> </text><text xml:space="preserve" font-family="Helvetica-Light" font-size="36.0" fill="#FEFFFF" transform="matrix(1.00, 0.00, -0.00, -1.00, 599.5, 650.0)"> </text><text xml:space="preserve" font-family="Helvetica-Light" font-size="36.0" fill="#FEFFFF" transform="matrix(1.00, 0.00, -0.00, -1.00, 609.5, 650.0)"> </text><text xml:space="preserve" font-family="Helvetica-Light" font-size="36.0" fill="#FEFFFF" transform="matrix(1.00, 0.00, -0.00, -1.00, 619.5, 650.0)">H</text><text xml:space="preserve" font-family="Helvetica-Light" font-size="36.0" fill="#FEFFFF" transform="matrix(1.00, 0.00, -0.00, -1.00, 645.5, 650.0)">e</text><text xml:space="preserve" font-family="Helvetica-Light" font-size="36.0" fill="#FEFFFF" transform="matrix(1.00, 0.00, -0.00, -1.00, 665.5, 650.0)">a</text><text xml:space="preserve" font-family="Helvetica-Light" font-size="36.0" fill="#FEFFFF" transform="matrix(1.00, 0.00, -0.00, -1.00, 685.5, 650.0)">d</text><text xml:space="preserve" font-family="Helvetica-Light" font-size="36.0" fill="#FEFFFF" transform="matrix(1.00, 0.00, -0.00, -1.00, 707.5, 650.0)">l</text><text xml:space="preserve" font-family="Helvetica-Light" font-size="36.0" fill="#FEFFFF" transform="matrix(1.00, 0.00, -0.00, -1.00, 715.5, 650.0)">i</text><text xml:space="preserve" font-family="Helvetica-Light" font-size="36.0" fill="#FEFFFF" transform="matrix(1.00, 0.00, -0.00, -1.00, 723.5, 650.0)">n</text><text xml:space="preserve" font-family="Helvetica-Light" font-size="36.0" fill="#FEFFFF" transform="matrix(1.00, 0.00, -0.00, -1.00, 743.5, 650.0)">e</text><text xml:space="preserve" font-family="Helvetica-Light" font-size="36.0" fill="#FEFFFF" transform="matrix(1.00, 0.00, -0.00, -1.00, 763.5, 650.0)">s</text><text xml:space="preserve" font-family="Helvetica-Light" font-size="32.0" fill="#FEFFFF" transform="matrix(0.92, 0.39, 0.39, -0.92, 500.6, 682.5)">A</text><text xml:space="preserve" font-family="Helvetica-Light" font-size="32.0" fill="#FEFFFF" transform="matrix(0.92, 0.39, 0.39, -0.92, 520.3, 690.8)">l</text><text xml:space="preserve" font-family="Helvetica-Light" font-size="32.0" fill="#FEFFFF" transform="matrix(0.92, 0.39, 0.39, -0.92, 526.8, 693.6)">l</text><text xml:space="preserve" font-family="Helvetica-Light" font-size="32.0" fill="#FEFFFF" transform="matrix(0.92, 0.39, 0.39, -0.92, 533.3, 696.3)">i</text><text xml:space="preserve" font-family="Helvetica-Light" font-size="32.0" fill="#FEFFFF" transform="matrix(0.92, 0.39, 0.39, -0.92, 539.9, 699.1)">t</text><text xml:space="preserve" font-family="Helvetica-Light" font-size="32.0" fill="#FEFFFF" transform="matrix(0.92, 0.39, 0.39, -0.92, 548.1, 702.6)">e</text><text xml:space="preserve" font-family="Helvetica-Light" font-size="32.0" fill="#FEFFFF" transform="matrix(0.92, 0.39, 0.39, -0.92, 564.5, 709.5)">r</text><text xml:space="preserve" font-family="Helvetica-Light" font-size="32.0" fill="#FEFFFF" transform="matrix(0.92, 0.39, 0.39, -0.92, 574.3, 713.7)">a</text><text xml:space="preserve" font-family="Helvetica-Light" font-size="32.0" fill="#FEFFFF" transform="matrix(0.92, 0.39, 0.39, -0.92, 590.6, 720.7)">t</text><text xml:space="preserve" font-family="Helvetica-Light" font-size="32.0" fill="#FEFFFF" transform="matrix(0.92, 0.39, 0.39, -0.92, 598.8, 724.1)">i</text><text xml:space="preserve" font-family="Helvetica-Light" font-size="32.0" fill="#FEFFFF" transform="matrix(0.92, 0.39, 0.39, -0.92, 605.4, 726.9)">v</text><text xml:space="preserve" font-family="Helvetica-Light" font-size="32.0" fill="#FEFFFF" transform="matrix(0.92, 0.39, 0.39, -0.92, 620.1, 733.2)">e</text><text xml:space="preserve" font-family="Helvetica-Light" font-size="27.0" fill="#FEFFFF" transform="matrix(0.92, 0.40, 0.40, -0.92, 576.7, 674.5)">^</text><text xml:space="preserve" font-family="Helvetica-Light" font-size="27.0" fill="#FEFFFF" transform="matrix(0.92, -0.40, -0.40, -0.92, 613.9, 681.6)">^</text><text xml:space="preserve" font-family="Helvetica-Light" font-size="32.0" fill="#FEFFFF" transform="matrix(0.98, -0.17, -0.17, -0.98, 629.2, 701.3)">P</text><text xml:space="preserve" font-family="Helvetica-Light" font-size="32.0" fill="#FEFFFF" transform="matrix(0.98, -0.17, -0.17, -0.98, 648.4, 697.9)">u</text><text xml:space="preserve" font-family="Helvetica-Light" font-size="32.0" fill="#FEFFFF" transform="matrix(0.98, -0.17, -0.17, -0.98, 666.0, 694.8)">n</text><text xml:space="preserve" font-family="Helvetica-Light" font-size="32.0" fill="#FEFFFF" transform="matrix(0.98, -0.17, -0.17, -0.98, 683.5, 691.7)">n</text><text xml:space="preserve" font-family="Helvetica-Light" font-size="32.0" fill="#FEFFFF" transform="matrix(0.98, -0.17, -0.17, -0.98, 701.0, 688.6)">y</text></g></svg>